# Blender v2.70 (sub 0) OBJ File: ''
# www.blender.org
v 1.100000 -0.200000 -1.100000
v 1.100000 -0.200000 1.100000
v -1.100000 -0.200000 1.100000
v -1.100000 -0.200000 -1.100000
v 1.100001 0.200000 -1.100000
v 1.099999 0.200000 1.100001
v -1.100000 0.200000 1.100000
v -1.100000 0.200000 -1.100000
v 0.900000 0.200000 -0.900000
v 0.899999 0.200000 0.900001
v -0.900000 0.200000 0.900000
v -0.900000 0.200000 -0.900000
v 0.900000 -0.200000 -0.900000
v 0.900000 -0.200000 0.900000
v -0.900000 -0.200000 0.900000
v -0.900000 -0.200000 -0.900000
vn 0.000000 1.000000 0.000000
vn 1.000000 -0.000001 0.000001
vn -0.000000 -0.000002 1.000000
vn -1.000000 -0.000001 -0.000000
vn 0.000000 0.000001 -1.000000
vn 1.000000 0.000000 0.000000
vn 0.000000 -1.000000 0.000000
vn -0.000000 -0.000001 1.000000
vn -1.000000 0.000001 -0.000001
vn 1.000000 0.000002 0.000000
vn -0.000000 0.000000 1.000000
vn -1.000000 0.000000 -0.000000
vn 1.000000 0.000001 0.000000
vn 0.000000 -0.000000 -1.000000
s off
f 7//1 11//1 12//1
f 1//2 5//2 6//2
f 2//3 6//3 7//3
f 7//4 8//4 4//4
f 1//5 4//5 8//5
f 11//6 15//6 16//6
f 6//1 10//1 11//1
f 8//1 12//1 9//1
f 5//1 9//1 10//1
f 1//7 13//7 16//7
f 11//5 10//5 14//5
f 12//8 16//8 13//8
f 10//9 9//9 13//9
f 4//7 16//7 15//7
f 2//7 14//7 13//7
f 2//7 3//7 15//7
f 8//1 7//1 12//1
f 2//10 1//10 6//10
f 3//11 2//11 7//11
f 3//12 7//12 4//12
f 5//5 1//5 8//5
f 12//13 11//13 16//13
f 7//1 6//1 11//1
f 5//1 8//1 9//1
f 6//1 5//1 10//1
f 4//7 1//7 16//7
f 15//14 11//14 14//14
f 9//8 12//8 13//8
f 14//4 10//4 13//4
f 3//7 4//7 15//7
f 1//7 2//7 13//7
f 14//7 2//7 15//7
